<svg xmlns="http://www.w3.org/2000/svg" viewBox="0 0 600 112" role="img" aria-labelledby="title">
  <title id="title">RiskWeave AI</title>
  <g data-brand-mark="concept-a" data-brand-geometry="concept-a-reference-v2" transform="translate(0 31) scale(.21)" fill="none" stroke-linecap="round" stroke-linejoin="round" stroke-width="16">
    <path stroke="#DF9417" d="M16 214H104C166 214 217 185 264 107"/>
    <path stroke="#1F9E9D" d="M282 88C338 39 383 18 422 23C482 29 525 83 610 105"/>
    <path stroke="#1F9E9D" d="M16 20H115C180 20 235 54 284 104"/>
    <path stroke="#98A4B3" d="M284 104C301 123 317 146 335 163"/>
    <path stroke="#1F9E9D" d="M335 163C354 183 374 197 397 203"/>
    <path stroke="#98A4B3" d="M397 203C429 216 461 216 491 207"/>
    <path stroke="#DF9417" d="M491 207C541 190 575 146 626 124"/>
    <path stroke="#98A4B3" d="M610 105C620 109 628 115 637 120M626 124C630 122 634 121 637 120M637 120H641"/>
    <circle cx="666" cy="120" r="25" fill="#98A4B3" stroke="none"/>
  </g>
  <g data-wordmark-outline="inter-ofl-1.1">
    <path fill="#F7F9FB" d="M167.32403094034927 73.0V36.623046875H181.45741758765755Q185.60351205221463 36.623046875 188.50302269912902 38.08842764505536Q191.4025333460434 39.55380841511073 192.9242605218739 42.213939402511706Q194.44598769770437 44.87407038991268 194.44598769770437 48.43974198504682Q194.44598769770437 52.03090168279169 192.90514444491583 54.62308846823462Q191.3643011921273 57.21527525367755 188.42602137124146 58.5999677704695Q185.4877415503556 59.98466028726145 181.29067088057707 59.98466028726145H171.67060064548974V54.01079628548342H180.14062857278537Q182.43526158773855 54.01079628548342 183.91961400472854 53.37878797577196Q185.40396642171856 52.74677966606049 186.13316617638637 51.50871595429195Q186.86236593105417 50.27065224252341 186.86236593105417 48.43974198504682Q186.86236593105417 46.58549170518096 186.13316617638637 45.311343919717785Q185.40396642171856 44.037196134254614 183.91377899913124 43.36910375084851Q182.4235915765439 42.701011367442405 180.1172885503961 42.701011367442405H174.68992979469755V73.0ZM187.585265875081 73.0 178.74522716985953 56.452491395530245H186.72255162681853L195.76005091226145 73.0ZM199.95625500189954 73.0V45.705078125H207.1799656416907V73.0ZM203.56703628168438 42.116644227570234Q201.92685350371804 42.116644227570234 200.75590811380536 41.019336387979834Q199.5849627238927 39.922028548389434 199.5849627238927 38.38579757296287Q199.5849627238927 36.81821494497659 200.75590811380536 35.73379281392464Q201.92685350371804 34.64937068287269 203.56703628168438 34.64937068287269Q205.21524791332953 34.64937068287269 206.3880138820001 35.732427379856205Q207.5607798506707 36.815484076839724 207.5607798506707 38.38513146377235Q207.5607798506707 39.92338590296634 206.3880138820001 41.02001506526828Q205.21524791332953 42.116644227570234 203.56703628168438 42.116644227570234ZM224.25111741973802 73.53496129477854Q220.9719703339395 73.53496129477854 218.44282235494464 72.59602171362756Q215.91367437594977 71.65708213247659 214.31287000702196 69.87370931485415Q212.71206563809415 68.09033649723172 212.23652843939954 65.5681697789566L218.97288743927803 64.40152054948685Q219.50784873405655 66.31626896554734 220.85738678724118 67.2704932682571Q222.20692484042584 68.22471757096686 224.45717032084536 68.22471757096686Q226.57446065763415 68.22471757096686 227.8060801287383 67.41182408773855Q229.03769959984245 66.59893060451026 229.03769959984245 65.36040208769805Q229.03769959984245 64.27573179663756 228.16999855599343 63.58429939084219Q227.3022975121444 62.89286698504682 225.4925791968356 62.51820815668438L220.7986349561712 61.54594181712731Q216.85830453267465 60.730755823654135 214.91147934331562 58.79828574576658Q212.9646541539566 56.86581566787901 212.9646541539566 53.806539574603896Q212.9646541539566 51.195164497191215 214.3913379650522 49.305150518650976Q215.81802177614782 47.41513654011074 218.38110574861588 46.38920889505537Q220.94418972108392 45.36328125 224.3719692621039 45.36328125Q227.60014014268097 45.36328125 229.95416573874462 46.25654261147146Q232.30819133480827 47.14980397294292 233.7577503632495 48.773411344204625Q235.2073093916907 50.39701871546633 235.71570854374778 52.61884283298974L229.30210255692293 53.75892991973804Q228.8680196324766 52.357806426264865 227.68293577612758 51.46100256944096Q226.49785191977853 50.56419871261705 224.48559168374146 50.56419871261705Q222.655899896399 50.56419871261705 221.42105830496266 51.33678417671949Q220.1862167135263 52.10936964082194 220.1862167135263 53.37231222013414Q220.1862167135263 54.41445419683561 220.98536432035021 55.13244874535244Q221.78451192717412 55.850443293869276 223.73104825648633 56.25903811570489L228.6089238460029 57.23560061570489Q232.56199832080483 58.03804255787269 234.49078147331653 59.862188199664644Q236.41956462582826 61.6863338414566 236.41956462582826 64.6086474907049Q236.41956462582826 67.28159474442293 234.8606793361924 69.28945509003196Q233.30179404655655 71.29731543564098 230.5603655708251 72.41613836520976Q227.81893709509364 73.53496129477854 224.25111741973802 73.53496129477854ZM247.97142348872435 64.94422595514047V56.25015693477222H249.07020073124778L258.0893599347317 45.705078125H266.45208362116045L254.63288854089848 59.36986813429511H252.9466664681941ZM241.41133312689954 73.0V36.623046875H248.6350437666907V73.0ZM258.4554264422083 73.0 250.1981845167312 60.98363319956339 255.0308873916502 55.85674310451026 266.98797452602633 73.0ZM278.18764800280877 73.0 268.41572319216783 36.623046875H276.44001655395215L280.7106813012244 54.65549876139714Q281.22552469394583 56.89651117089031 281.65330780775116 59.42795166013005Q282.08109092155655 61.9593921493698 282.49083199851464 64.50780063534613Q282.90057307547266 67.05620912132245 283.2933461556941 69.4149956828727H282.00541179378826Q282.4480870391205 67.05620912132245 282.8769441930366 64.50780063534613Q283.30580134695265 61.9593921493698 283.77711460021607 59.42795166013005Q284.2484278534795 56.89651117089031 284.7887593488117 54.65549876139714L289.28344681902684 36.623046875H296.95276596443557L301.4241134122615 54.65549876139714Q301.97611491878826 56.89651117089031 302.44159316645437 59.42795166013005Q302.9070714141205 61.9593921493698 303.3475985792312 64.50780063534613Q303.7881257443419 67.05620912132245 304.2308009896741 69.4149956828727H302.895112542879Q303.31229968560046 67.05620912132245 303.71566873690585 64.50780063534613Q304.1190377882112 61.9593921493698 304.5648629388639 59.42795166013005Q305.0106880895166 56.89651117089031 305.501117419738 54.65549876139714L309.772856207121 36.623046875H317.8204895912946L308.02522475826436 73.0H299.62212083769805L294.74847837867753 54.24787028990822Q293.9724541492078 51.173413205059454 293.4173027373605 47.58779965286508Q292.86215132551314 44.002186100670706 292.1976014374595 40.204043891731196H294.0152713236136Q293.27425712772776 43.90882601111363 292.7934219434912 47.446685478418736Q292.3125867592546 50.98454494572384 291.47713843370093 54.24787028990822L286.6024219345697 73.0ZM331.97412020055367 73.53496129477854Q327.80239320336244 73.53496129477854 324.78081224394805 71.82175297434732Q321.75923128453366 70.1085446539161 320.1388460336042 66.9591305914161Q318.51846078267465 63.8097165289161 318.51846078267465 59.4958013171678Q318.51846078267465 55.28383851586244 320.12771304246485 52.10471240532049Q321.7369653022551 48.92558629477854 324.6800060886276 47.14443377238927Q327.623046875 45.36328125 331.6016094524127 45.36328125Q334.2587349645166 45.36328125 336.5744561916524 46.210936606803656Q338.89017741878826 47.05859196360731 340.6432289533017 48.77240951910561Q342.3962804878151 50.486227074603896 343.383438958899 53.08578771079853Q344.3705974299829 55.685348346993166 344.3705974299829 59.201902957080485V61.2496065167717H321.5224645102854V56.672073528006834H340.8427246986946L337.46656211293663 57.91182051495318Q337.46656211293663 55.76152379477854 336.8090657006144 54.1711394519378Q336.1515692882922 52.580755109097055 334.8609905261478 51.702530309175835Q333.57041176400344 50.824305509254614 331.6525856576341 50.824305509254614Q329.73475955126486 50.824305509254614 328.3975007443419 51.71420032037047Q327.060241937419 52.60409513148633 326.3619004859156 54.124459407159264Q325.6635590344122 55.6448236828322 325.6635590344122 57.573390190308785V60.791109529825356Q325.6635590344122 63.18125071455707 326.4648547214575 64.80879317120318Q327.2661504085029 66.43633562784929 328.7185704822178 67.2551363316866Q330.1709905559327 68.07393703552393 332.08774262219123 68.07393703552393Q333.38046946455705 68.07393703552393 334.4375757877971 67.70565023281418Q335.4946821110371 67.33736343010442 336.25566977895664 66.61407089604563Q337.01665744687614 65.89077836198685 337.4146562976278 64.83052213342636L343.95663240759364 66.05337333864782Q343.2963786799829 68.30805940953367 341.66801034323464 69.99162789693463Q340.0396420064863 71.6751963843356 337.5891064155451 72.60507883955708Q335.1385708246039 73.53496129477854 331.97412020055367 73.53496129477854ZM357.53628438809415 73.53281321455708Q354.9356497117888 73.53281321455708 352.87480951076026 72.61359894543122Q350.8139693097317 71.69438467630536 349.63257237875854 69.8782221203322Q348.4511754477854 68.06205956435902 348.4511754477854 65.36376863805366Q348.4511754477854 63.070994843275116 349.2897014636478 61.54243083674829Q350.12822747951026 60.01386683022146 351.58294006347 59.0823733148339Q353.03765264742975 58.150879799446344 354.88567533166633 57.665748454766835Q356.7336980159029 57.180617110087326 358.75269135265125 56.987452690308785Q361.11763329481903 56.74653418564098 362.57288289883417 56.537403594224884Q364.0281325028493 56.328273002808785 364.70904115257247 55.88137381204537Q365.38994980229563 55.43447462128196 365.38994980229563 54.548194520530245V54.42719824814098Q365.38994980229563 53.24071997666097 364.888996716002 52.41984340761389Q364.3880436297083 51.59896683856681 363.4243696110371 51.161734008799975Q362.4606955923659 50.72450117903314 361.0534167182751 50.72450117903314Q359.63554187310046 50.72450117903314 358.57528564454 51.156436023258024Q357.5150294159795 51.58837086748291 356.83949096681 52.30636541599974Q356.16395251764044 53.02435996451658 355.8646839569995 53.91278814548974L349.2324254477854 52.78881166040242Q349.9381407500405 50.40052969584535 351.58018274818147 48.74821210164072Q353.22222474632247 47.095894507436086 355.64465934938784 46.22958787871804Q358.0670939524532 45.36328125 361.0715309701341 45.36328125Q363.2415937023722 45.36328125 365.3058004537563 45.877659837677804Q367.37000720514044 46.39203842535561 369.01903046400116 47.496041438409264Q370.66805372286194 48.60004445146292 371.6408570824744 50.36361974204853Q372.6136604420868 52.12719503263414 372.6136604420868 54.63725844964439V73.0H365.75630516981903V69.2125981921678H365.5143126250405Q364.85928466796 70.47060386099658 363.76380176078055 71.44555530083048Q362.668318853601 72.4205067406644 361.1217850252386 72.97665997761074Q359.57525119687614 73.53281321455708 357.53628438809415 73.53281321455708ZM359.55478140482535 68.44029240304734Q361.3080088843356 68.44029240304734 362.6293737346327 67.74302499165465Q363.95073858492975 67.04575758026196 364.69583229622344 65.86396805925683Q365.4409260075171 64.6821785382517 365.4409260075171 63.23867116044293V60.25736670518096Q365.10865106349024 60.4855411585434 364.4474677257922 60.68454058391926Q363.78628438809415 60.88354000929511 362.970705804589 61.04062035537902Q362.1551272210839 61.19770070146292 361.36181461985734 61.31286196825487Q360.56850201863074 61.42802323504682 359.95922449624146 61.514009473852184Q358.601703357238 61.69657792254682 357.5663982112329 62.134419987380724Q356.53109306522776 62.572262052214626 355.9558959663351 63.30937267768951Q355.3806988674424 64.0464833031644 355.3806988674424 65.16294150747659Q355.3806988674424 66.23486774723172 355.92195997286194 66.96399528688781Q356.46322107828144 67.69312282654391 357.4014069943419 68.06670761479563Q358.3395929104024 68.44029240304734 359.55478140482535 68.44029240304734ZM385.75142235731903 73.0 375.69619515767465 45.705078125H383.3731770138819L387.9985271174829 59.941761712779055Q388.8497971846507 62.58385066333271 389.47128173829 65.29019689046856Q390.09276629192925 67.99654311760442 390.7497978992078 70.87554327242977H389.17670192812386Q389.8209894840971 67.99654311760442 390.43610201208367 65.29656891612125Q391.05121454007025 62.59659471463808 391.878070544738 59.941761712779055L396.45244444311754 45.705078125H404.0529619914926L393.9722466892375 73.0ZM419.40087801305367 73.53496129477854Q415.22915101586244 73.53496129477854 412.20757005644805 71.82175297434732Q409.18598909703366 70.1085446539161 407.5656038461042 66.9591305914161Q405.94521859517465 63.8097165289161 405.94521859517465 59.4958013171678Q405.94521859517465 55.28383851586244 407.55447085496485 52.10471240532049Q409.1637231147551 48.92558629477854 412.1067639011276 47.14443377238927Q415.0498046875 45.36328125 419.0283672649127 45.36328125Q421.6854927770166 45.36328125 424.0012140041524 46.210936606803656Q426.31693523128826 47.05859196360731 428.0699867658017 48.77240951910561Q429.8230383003151 50.486227074603896 430.810196771399 53.08578771079853Q431.7973552424829 55.685348346993166 431.7973552424829 59.201902957080485V61.2496065167717H408.9492223227854V56.672073528006834H428.2694825111946L424.89331992543663 57.91182051495318Q424.89331992543663 55.76152379477854 424.2358235131144 54.1711394519378Q423.5783271007922 52.580755109097055 422.2877483386478 51.702530309175835Q420.99716957650344 50.824305509254614 419.0793434701341 50.824305509254614Q417.16151736376486 50.824305509254614 415.8242585568419 51.71420032037047Q414.486999749919 52.60409513148633 413.7886582984156 54.124459407159264Q413.0903168469122 55.6448236828322 413.0903168469122 57.573390190308785V60.791109529825356Q413.0903168469122 63.18125071455707 413.8916125339575 64.80879317120318Q414.6929082210029 66.43633562784929 416.1453282947178 67.2551363316866Q417.5977483684327 68.07393703552393 419.51450043469123 68.07393703552393Q420.80722727705705 68.07393703552393 421.8643336002971 67.70565023281418Q422.9214399235371 67.33736343010442 423.68242759145664 66.61407089604563Q424.44341525937614 65.89077836198685 424.8414141101278 64.83052213342636L431.38339022009364 66.05337333864782Q430.7231364924829 68.30805940953367 429.09476815573464 69.99162789693463Q427.4663998189863 71.6751963843356 425.0158642280451 72.60507883955708Q422.5653286371039 73.53496129477854 419.40087801305367 73.53496129477854Z"/>
    <path fill="#1F9E9D" d="M448.9242235776816 73.0 461.6734889952701 36.623046875H469.6704874885566L482.6776542116456 73.0H475.754228989453L469.17042252345897 53.838230350740005Q468.248862216776 50.99788595228105 467.2258726183437 47.374415165118634Q466.2028830199115 43.75094437795621 464.94711245041196 39.033178986592155H466.26894239205063Q465.04549523668754 43.783953799683395 464.05345703721014 47.44043400857301Q463.0614188377327 51.09691421746262 462.2051913669133 53.838230350740005L455.8332021117829 73.0ZM456.24505281841243 63.87196571273268V58.74355951518157H475.3568249709147V63.87196571273268ZM493.9696219627327 36.623046875V73.0H487.63834883754197V36.623046875Z"/>
  </g>
</svg>
