<svg xmlns="http://www.w3.org/2000/svg" viewBox="0 0 600 112" role="img" aria-labelledby="title">
  <title id="title">RiskWeave AI</title>
  <g data-brand-mark="concept-a" data-brand-geometry="concept-a-reference-v2" transform="translate(0 31) scale(.21)" fill="none" stroke-linecap="round" stroke-linejoin="round" stroke-width="16">
    <path stroke="#DF9417" d="M16 214H104C166 214 217 185 264 107"/>
    <path stroke="#1F9E9D" d="M282 88C338 39 383 18 422 23C482 29 525 83 610 105"/>
    <path stroke="#1F9E9D" d="M16 20H115C180 20 235 54 284 104"/>
    <path stroke="#0B1A2D" d="M284 104C301 123 317 146 335 163"/>
    <path stroke="#1F9E9D" d="M335 163C354 183 374 197 397 203"/>
    <path stroke="#0B1A2D" d="M397 203C429 216 461 216 491 207"/>
    <path stroke="#DF9417" d="M491 207C541 190 575 146 626 124"/>
    <path stroke="#0B1A2D" d="M610 105C620 109 628 115 637 120M626 124C630 122 634 121 637 120M637 120H641"/>
    <circle cx="666" cy="120" r="25" fill="#0B1A2D" stroke="none"/>
  </g>
  <g data-wordmark-outline="avenir-next">
    <path fill="#0B1A2D" d="M163.978 36.892H176.524Q179.074 36.892 181.471 37.428Q183.868 37.963 185.73 39.187Q187.591 40.411 188.713 42.4Q189.835 44.389 189.835 47.245Q189.835 51.172 187.617 53.645Q185.398 56.119 181.573 56.986L191.212 73H183.46L175.096 57.7H170.404V73H163.978ZM175.657 52.447Q177.034 52.447 178.411 52.243Q179.788 52.039 180.885 51.478Q181.981 50.917 182.695 49.871Q183.409 48.826 183.409 47.194Q183.409 45.715 182.746 44.772Q182.083 43.828 181.063 43.267Q180.043 42.706 178.743 42.502Q177.442 42.298 176.218 42.298H170.404V52.447ZM194.353 48.52H200.473V73H194.353ZM193.486 40.207Q193.486 38.728 194.583 37.632Q195.679 36.535 197.362 36.535Q199.045 36.535 200.192 37.581Q201.34 38.626 201.34 40.207Q201.34 41.788 200.192 42.834Q199.045 43.879 197.362 43.879Q195.679 43.879 194.583 42.783Q193.486 41.686 193.486 40.207ZM219.832 55.048Q219.016 53.977 217.588 53.187Q216.16 52.396 214.477 52.396Q212.998 52.396 211.774 53.008Q210.55 53.62 210.55 55.048Q210.55 56.476 211.901 57.062Q213.253 57.649 215.854 58.261Q217.231 58.567 218.634 59.077Q220.036 59.587 221.184 60.428Q222.331 61.27 223.045 62.52Q223.759 63.769 223.759 65.554Q223.759 67.798 222.918 69.353Q222.076 70.909 220.674 71.878Q219.271 72.847 217.41 73.28Q215.548 73.714 213.559 73.714Q210.703 73.714 208 72.668Q205.297 71.623 203.512 69.685L207.541 65.911Q208.561 67.237 210.193 68.104Q211.825 68.971 213.814 68.971Q214.477 68.971 215.166 68.818Q215.854 68.665 216.441 68.334Q217.027 68.002 217.384 67.441Q217.741 66.88 217.741 66.064Q217.741 64.534 216.339 63.871Q214.936 63.208 212.131 62.545Q210.754 62.239 209.454 61.755Q208.153 61.27 207.133 60.48Q206.113 59.689 205.501 58.516Q204.889 57.343 204.889 55.609Q204.889 53.569 205.731 52.09Q206.572 50.611 207.949 49.668Q209.326 48.724 211.06 48.265Q212.794 47.806 214.63 47.806Q217.282 47.806 219.807 48.724Q222.331 49.642 223.81 51.529ZM227.665 34.444H233.785V58.822H233.938L243.22 48.52H251.074L240.466 59.587L251.737 73H243.628L233.938 60.454H233.785V73H227.665ZM250.39 36.892H257.428L264.415 63.412H264.517L272.473 36.892H279.103L286.906 63.412H287.008L294.148 36.892H300.982L290.425 73H284.203L275.737 45.919H275.635L267.169 73H260.947ZM318.862 58.312Q318.862 57.139 318.531 56.068Q318.199 54.997 317.485 54.181Q316.771 53.365 315.674 52.88Q314.578 52.396 313.099 52.396Q310.345 52.396 308.433 54.053Q306.52 55.711 306.316 58.312ZM324.982 61.066Q324.982 61.474 324.982 61.882Q324.982 62.29 324.931 62.698H306.316Q306.418 64.024 307.005 65.12Q307.591 66.217 308.56 67.007Q309.529 67.798 310.753 68.257Q311.977 68.716 313.303 68.716Q315.598 68.716 317.179 67.874Q318.76 67.033 319.78 65.554L323.86 68.818Q320.239 73.714 313.354 73.714Q310.498 73.714 308.101 72.822Q305.704 71.929 303.945 70.297Q302.185 68.665 301.191 66.293Q300.196 63.922 300.196 60.913Q300.196 57.955 301.191 55.532Q302.185 53.11 303.919 51.401Q305.653 49.693 308.024 48.749Q310.396 47.806 313.15 47.806Q315.7 47.806 317.867 48.648Q320.035 49.489 321.616 51.147Q323.197 52.804 324.089 55.278Q324.982 57.751 324.982 61.066ZM344.596 69.889H344.443Q343.525 71.521 341.485 72.566Q339.445 73.612 336.844 73.612Q335.365 73.612 333.759 73.23Q332.152 72.847 330.8 71.954Q329.449 71.062 328.557 69.608Q327.664 68.155 327.664 66.013Q327.664 63.259 329.219 61.627Q330.775 59.995 333.223 59.128Q335.671 58.261 338.654 57.981Q341.638 57.7 344.494 57.7V57.088Q344.494 54.793 342.837 53.697Q341.179 52.6 338.884 52.6Q336.946 52.6 335.161 53.416Q333.376 54.232 332.203 55.405L329.041 51.682Q331.132 49.744 333.861 48.775Q336.589 47.806 339.394 47.806Q342.658 47.806 344.774 48.724Q346.891 49.642 348.115 51.121Q349.339 52.6 349.823 54.436Q350.308 56.272 350.308 58.108V73H344.596ZM344.494 61.831H343.117Q341.638 61.831 340.006 61.959Q338.374 62.086 336.997 62.52Q335.62 62.953 334.702 63.744Q333.784 64.534 333.784 65.911Q333.784 66.778 334.166 67.364Q334.549 67.951 335.161 68.308Q335.773 68.665 336.538 68.818Q337.303 68.971 338.068 68.971Q341.23 68.971 342.862 67.288Q344.494 65.605 344.494 62.698ZM352.276 48.52H358.957L365.383 66.37H365.485L371.962 48.52H378.439L368.698 73H362.17ZM397.849 58.312Q397.849 57.139 397.518 56.068Q397.186 54.997 396.472 54.181Q395.758 53.365 394.662 52.88Q393.565 52.396 392.086 52.396Q389.332 52.396 387.419 54.053Q385.507 55.711 385.303 58.312ZM403.969 61.066Q403.969 61.474 403.969 61.882Q403.969 62.29 403.918 62.698H385.303Q385.405 64.024 385.992 65.12Q386.578 66.217 387.547 67.007Q388.516 67.798 389.74 68.257Q390.964 68.716 392.29 68.716Q394.585 68.716 396.166 67.874Q397.747 67.033 398.767 65.554L402.847 68.818Q399.226 73.714 392.341 73.714Q389.485 73.714 387.088 72.822Q384.691 71.929 382.932 70.297Q381.172 68.665 380.178 66.293Q379.183 63.922 379.183 60.913Q379.183 57.955 380.178 55.532Q381.172 53.11 382.906 51.401Q384.64 49.693 387.012 48.749Q389.383 47.806 392.137 47.806Q394.687 47.806 396.855 48.648Q399.022 49.489 400.603 51.147Q402.184 52.804 403.077 55.278Q403.969 57.751 403.969 61.066Z"/>
    <path fill="#1F9E9D" d="M436.865 73H431.255L446.912 36.892H451.502L467.006 73H461.294L457.622 64.126H440.486ZM442.271 59.689H455.786L449.054 42.757ZM476.696 73H471.647V36.892H476.696Z"/>
  </g>
</svg>
